<?xml version="1.0" encoding="utf-8"?><svg version="1.1" id="Layer_1" xmlns="http://www.w3.org/2000/svg" xmlns:xlink="http://www.w3.org/1999/xlink" x="0px" y="0px" viewBox="0 0 122.88 96.4" style="enable-background:new 0 0 122.88 96.4" xml:space="preserve"><style type="text/css">.st0{fill-rule:evenodd;clip-rule:evenodd;}</style><g><path class="st0" d="M40.02,47.13h-0.03c-4.2-0.57-16.52,0.1-18.43,0C15.11,47.41,8.4,53,4.45,61.33 c-2.32,4.89-2.93,8.57-3.31,13.79C0.38,80.39-0.03,85.6,0,90.75c1.27,8.01,11.42,5.64,12.29,0l1.24-16.14 c0.19-2.43,0.35-4.08,1.34-6.41c0.46-1.09,1.02-2.02,1.67-2.79l0.61,29.48L17,95.97h27.55l-0.19-1.37l0.54-31.49l5.84,5.87 c2.89,2.74,6.68,4.64,11.93,5.18l-0.06,0.82c-0.77,5.26-1.17,10.47-1.14,15.62c1.27,8.01,11.42,5.64,12.29,0l1.24-16.14 c0.04-0.55,0.08-1.06,0.13-1.55c0.96-0.4,1.83-1.08,2.66-2.27c0.12-0.17,0.22-0.34,0.32-0.51l0.51,24.61l-0.15,1.09H106l-0.19-1.37 l0.44-25.38v0.49l0.09-4.32c0.65,0.77,1.21,1.7,1.67,2.79c0.99,2.32,1.15,3.97,1.34,6.41l1.24,16.14c0.51,7.21,12.28,8.24,12.29,0 c0.03-5.15-0.37-10.36-1.14-15.62c-0.38-5.23-1-8.9-3.31-13.79c-4.05-8.56-9.29-13.09-17.25-14.02c-4.02-0.2-14.29,0.14-18.06-0.09 c-3.31,0.45-6.46,1.49-9.22,3.69c-3.12,2.49-5.93,6.08-7.98,10.42c-0.11,0.23-0.22,0.47-0.32,0.7c-2.55,0.1-4.92-0.32-6.51-2.27 c-3.21-3.06-6.74-6.88-10.42-9.27C45.46,48.26,43.59,47.87,40.02,47.13L40.02,47.13z M53.15,10.94l5.73-0.54L54.13,0h-6.5 l3.68,5.97L44.69,6.7l12.16,14.6L53.15,10.94L53.15,10.94z M72.26,10.94l-5.73-0.54L71.28,0h6.5l-3.68,5.97l6.62,0.73L68.56,21.3 L72.26,10.94L72.26,10.94z M92.95,15.83c7.99,0,14.47,6.48,14.47,14.47c0,7.99-6.48,14.47-14.47,14.47 c-7.99,0-14.47-6.48-14.47-14.47C78.47,22.31,84.95,15.83,92.95,15.83L92.95,15.83z M30.65,15.83c7.99,0,14.47,6.48,14.47,14.47 c0,7.99-6.48,14.47-14.47,14.47c-7.99,0-14.47-6.48-14.47-14.47C16.18,22.31,22.66,15.83,30.65,15.83L30.65,15.83z"/></g></svg>