<?xml version="1.0" encoding="iso-8859-1"?>
<!-- Uploaded to: SVG Repo, www.svgrepo.com, Generator: SVG Repo Mixer Tools -->
<!DOCTYPE svg PUBLIC "-//W3C//DTD SVG 1.1//EN" "http://www.w3.org/Graphics/SVG/1.1/DTD/svg11.dtd">
<svg fill="#000000" height="800px" width="800px" version="1.1" id="Capa_1" xmlns="http://www.w3.org/2000/svg" xmlns:xlink="http://www.w3.org/1999/xlink" 
	 viewBox="0 0 406.846 406.846" xml:space="preserve">
<path d="M207.039,229.992c0,5.523-4.477,10-10,10h-68.572c-5.523,0-10-4.477-10-10s4.477-10,10-10h68.572
	C202.562,219.992,207.039,224.469,207.039,229.992z M197.039,258.362h-68.572c-5.523,0-10,4.477-10,10s4.477,10,10,10h68.572
	c5.523,0,10-4.477,10-10S202.562,258.362,197.039,258.362z M127.753,101.563h17.312v17.313c0,5.523,4.477,10,10,10s10-4.477,10-10
	v-17.313h17.312c5.523,0,10-4.477,10-10s-4.477-10-10-10h-17.312V64.25c0-5.523-4.477-10-10-10s-10,4.477-10,10v17.312h-17.312
	c-5.523,0-10,4.477-10,10S122.23,101.563,127.753,101.563z M118.468,191.625c0,5.523,4.477,10,10,10h149.907c5.523,0,10-4.477,10-10
	s-4.477-10-10-10H128.468C122.945,181.625,118.468,186.102,118.468,191.625z M348.39,78.644v318.202c0,5.523-4.477,10-10,10H68.455
	c-5.523,0-10-4.477-10-10V10c0-5.523,4.477-10,10-10h201.29c0.395,0.002,0.771,0.017,1.152,0.059
	c0.012,0.001,0.024,0.004,0.033,0.003c0.012,0.002,0.022,0.003,0.033,0.004c0.012,0.001,0.022,0.002,0.033,0.004
	c0.01,0,0.021,0.002,0.032,0.004c0,0,0.001,0,0.001,0c0.419,0.051,0.833,0.128,1.238,0.231c0.005,0.001,0.011,0.002,0.016,0.004
	h0.001c1.659,0.422,3.213,1.271,4.492,2.511c0.001,0.001,0.003,0.002,0.004,0.004c0.006,0.006,0.012,0.011,0.018,0.017
	c0.003,0.003,0.007,0.007,0.01,0.01c0.004,0.004,0.008,0.008,0.012,0.012c0.005,0.005,0.01,0.01,0.016,0.015
	c0.002,0.002,0.004,0.004,0.006,0.006c0.015,0.015,0.03,0.03,0.044,0.044L345.461,71.5c0.006,0.007,0.013,0.013,0.02,0.02
	c0.002,0.002,0.004,0.004,0.006,0.006c0.005,0.005,0.01,0.01,0.015,0.015c0.001,0.002,0.003,0.003,0.005,0.005
	c0.014,0.014,0.027,0.028,0.041,0.042c0,0,0.001,0.001,0.002,0.002c0.007,0.007,0.013,0.014,0.02,0.021h0
	c1.195,1.233,2.027,2.723,2.463,4.314c0,0.001,0,0.003,0.001,0.004c0.002,0.007,0.004,0.015,0.006,0.022
	c0.001,0.005,0.002,0.01,0.004,0.015c0.001,0.005,0.002,0.009,0.004,0.014c0.001,0.006,0.003,0.013,0.005,0.02
	c0,0.001,0,0.002,0.001,0.003c0.125,0.471,0.216,0.952,0.271,1.44c0,0.004,0.001,0.008,0.001,0.012s0.001,0.008,0.001,0.012
	c0,0.007,0.001,0.015,0.002,0.022c0,0,0,0.002,0,0.003C348.373,77.874,348.393,78.258,348.39,78.644z M279.818,68.571h34.43
	l-34.43-34.429V68.571z M328.39,88.571h-58.572c-5.523,0-10-4.477-10-10V20H78.455v366.846H328.39V88.571z M278.374,219.992h-37.905
	c-5.523,0-10,4.477-10,10s4.477,10,10,10h37.905c5.523,0,10-4.477,10-10S283.897,219.992,278.374,219.992z M278.374,328.605h-37.905
	c-5.523,0-10,4.477-10,10s4.477,10,10,10h37.905c5.523,0,10-4.477,10-10S283.897,328.605,278.374,328.605z M278.374,258.362h-37.905
	c-5.523,0-10,4.477-10,10s4.477,10,10,10h37.905c5.523,0,10-4.477,10-10S283.897,258.362,278.374,258.362z"/>
</svg>